<?xml version="1.0" encoding="utf-8"?>
<!-- Generator: Adobe Illustrator 18.1.0, SVG Export Plug-In . SVG Version: 6.00 Build 0)  -->
<svg version="1.1" id="Calque_1" xmlns="http://www.w3.org/2000/svg" xmlns:xlink="http://www.w3.org/1999/xlink" x="0px" y="0px"
	 viewBox="0 0 595.3 283.5" enable-background="new 0 0 595.3 283.5" xml:space="preserve">
<g>
	<path d="M139,150.4l0.3,0.6c2.5,4.8,6.6,6.2,13.6,6.2c6.5,0,11.5-1.7,11.5-6.5c0-1.8-1.4-3-3.9-4c-2.9-1.2-6.3-1.8-9.5-2.5
		c-6.8-1.5-14.6-3.3-14.6-8.9c0-6.7,7.8-9.6,15.9-9.6h1.3c6.8,0,13.1,2.2,15.3,7.3l0.6,1.4l-5.8,1.1l-0.3-0.6
		c-1.6-4-5.3-4.9-11.1-4.9c-5.4,0-9.9,1.4-9.9,5.3c0,2.5,5.7,3.8,8.3,4.3c1.6,0.4,3.4,0.7,5.1,1.1c6.9,1.6,14.7,3.8,14.7,9.9
		c0,7.5-8.3,10.8-17.5,10.8h-1.3c-7.9,0-14.6-2.8-17.5-8.2l-0.8-1.3L139,150.4z"/>
	<path d="M179.3,161.1v-34.7h6v34.7H179.3z"/>
	<path d="M227.6,156.8v4.3h-31.1v-34.7h30v4.3h-24v9.4h19.1v4.2h-19.1v12.6H227.6z"/>
	<path d="M274.2,126.3v34.7h-6.6l-26.3-27.4v27.4h-6v-34.7h6.3l26.7,27.6v-27.6H274.2z"/>
	<path d="M318.3,126.3v4.3h-15.8v30.5h-6v-30.5h-15.8v-4.3H318.3z"/>
	<path d="M324.9,161.1v-34.7h6v34.7H324.9z"/>
	<path d="M372.7,156.8v4.3h-30.6v-34.7h6v30.5H372.7z"/>
	<path d="M409.9,156.8v4.3h-30.6v-34.7h6v30.5H409.9z"/>
	<path d="M410.3,142.8c0-8.8,9.4-17,22.5-17h1.3c13.1,0,22.5,8.2,22.5,17v1.7c0,8.8-9.4,17-22.5,17h-1.3c-13.1,0-22.5-8.2-22.5-17
		V142.8z M434,157.3c9.6,0,16.5-6.1,16.5-12.7v-1.7c0-6.6-6.9-12.7-16.5-12.7h-1.3c-9.6,0-16.5,6.1-16.5,12.7v1.7
		c0,6.6,6.9,12.7,16.5,12.7H434z"/>
</g>
</svg>
