<?xml version="1.0" encoding="utf-8"?>
<!-- Generator: Adobe Illustrator 18.1.0, SVG Export Plug-In . SVG Version: 6.00 Build 0)  -->
<svg version="1.1" id="Calque_1" xmlns="http://www.w3.org/2000/svg" xmlns:xlink="http://www.w3.org/1999/xlink" x="0px" y="0px"
	 viewBox="0 0 595.3 283.5" enable-background="new 0 0 595.3 283.5" xml:space="preserve">
<g>
	<path d="M215.2,126.3l-18,20.1v14.6h-5.9v-14.6l-18-20.1h7.1l13.8,15.8l14-15.8H215.2z"/>
	<path d="M253.2,156.8v4.3h-31.1v-34.7h30v4.3h-24v9.4h19.1v4.2h-19.1v12.6H253.2z"/>
	<path d="M294.1,126.3v4.3h-15.8v30.5h-6v-30.5h-15.8v-4.3H294.1z"/>
	<path d="M294.4,142.8c0-8.8,9.4-17,22.5-17h1.3c13.1,0,22.5,8.2,22.5,17v1.7c0,8.8-9.4,17-22.5,17h-1.3c-13.1,0-22.5-8.2-22.5-17
		V142.8z M318.1,157.3c9.6,0,16.5-6.1,16.5-12.7v-1.7c0-6.6-6.9-12.7-16.5-12.7h-1.3c-9.6,0-16.5,6.1-16.5,12.7v1.7
		c0,6.6,6.9,12.7,16.5,12.7H318.1z"/>
	<path d="M349.4,161.1v-34.7h15.1c8.1,0,15.8,2.4,15.8,9.3c0,2.6-1.3,4.6-3.8,6.2c5.3,1.8,8.1,4.6,8.1,9.1
		c0,7.4-10.3,10.2-18.6,10.2H349.4z M355.4,130.6v9.6h9.1c4.9,0,9.8-1,9.8-4.6v-0.4c0-3.6-4.9-4.6-9.8-4.6H355.4z M355.4,144.4v12.3
		h10.5c5.8,0,12.6-1.6,12.6-5.9v-0.5c0-4.3-6.8-5.9-12.6-5.9H355.4z"/>
	<path d="M424.1,156.8v4.3H393v-34.7h30v4.3h-24v9.4h19.1v4.2H399v12.6H424.1z"/>
</g>
</svg>
